<?xml version="1.0" standalone="no"?><!DOCTYPE svg PUBLIC "-//W3C//DTD SVG 1.1//EN" "http://www.w3.org/Graphics/SVG/1.1/DTD/svg11.dtd"><svg t="1611154236944" class="icon" viewBox="0 0 1024 1024" version="1.1" xmlns="http://www.w3.org/2000/svg" p-id="3058" xmlns:xlink="http://www.w3.org/1999/xlink" width="200" height="200"><defs><style type="text/css"></style></defs><path d="M898.6 512a433 433 0 0 1-3.72 55.87l1.08-8a419.35 419.35 0 0 1-28.78 105.74l3.05-7.21a420.28 420.28 0 0 1-28.84 56.12q-8.13 13.25-17.22 25.85a475 475 0 0 1-4.7 6.38c-0.66 0.88-1.5 2.51-2.39 3.15-0.08 0.06 5.08-6.49 2.31-3-3.54 4.48-7.13 8.93-10.82 13.29a419.87 419.87 0 0 1-43.39 44.07q-5.45 4.77-11.07 9.36-3.06 2.5-6.17 5c-0.69 0.54-1.39 1.07-2.08 1.62 8.27-6.54 2.76-2.14 0.87-0.72q-12.68 9.51-26.05 18a419 419 0 0 1-62.3 32.7l7.22-3A419.84 419.84 0 0 1 559.85 896l8-1.08a426.53 426.53 0 0 1-111.74 0l8 1.08a419.84 419.84 0 0 1-105.69-28.8l7.22 3a419.22 419.22 0 0 1-56.13-28.84q-13.23-8.13-25.84-17.22c-2.14-1.54-4.27-3.11-6.38-4.69-0.88-0.66-2.51-1.5-3.15-2.39-0.06-0.09 6.49 5.07 3 2.3-4.49-3.54-8.93-7.12-13.29-10.82a419 419 0 0 1-44.08-43.39q-4.77-5.45-9.36-11.06-2.49-3.06-4.94-6.17l-1.62-2.08c6.54 8.26 2.13 2.75 0.72 0.87q-9.53-12.69-18.06-26.06a420.33 420.33 0 0 1-32.7-62.29l3.05 7.21a419.35 419.35 0 0 1-28.78-105.74l1.08 8a425.66 425.66 0 0 1 0-111.74l-1.08 8a419.35 419.35 0 0 1 28.78-105.74l-3.05 7.21a421 421 0 0 1 28.84-56.13q8.13-13.23 17.22-25.84c1.55-2.14 3.11-4.27 4.7-6.38 0.66-0.88 1.5-2.51 2.39-3.15 0.08-0.06-5.08 6.49-2.3 3 3.53-4.48 7.12-8.93 10.81-13.29a419.87 419.87 0 0 1 43.39-44.07q5.45-4.77 11.07-9.36 3.06-2.5 6.17-4.95l2.08-1.62c-8.27 6.54-2.76 2.14-0.87 0.72q12.68-9.51 26-18.05a419 419 0 0 1 62.3-32.7l-7.22 3a419.42 419.42 0 0 1 105.75-28.78l-8 1.08a426.53 426.53 0 0 1 111.74 0l-8-1.08a419.42 419.42 0 0 1 105.72 28.89l-7.22-3a419.22 419.22 0 0 1 56.13 28.84q13.23 8.11 25.84 17.22c2.14 1.54 4.27 3.11 6.38 4.69 0.88 0.66 2.51 1.5 3.16 2.39 0.06 0.09-6.5-5.07-3-2.3 4.49 3.54 8.93 7.12 13.29 10.82a419.87 419.87 0 0 1 44.08 43.38q4.77 5.46 9.36 11.07 2.49 3.06 4.94 6.17c0.55 0.69 1.08 1.39 1.63 2.08-6.55-8.26-2.14-2.75-0.73-0.87Q829 290 837.53 303.35a420.93 420.93 0 0 1 32.7 62.3l-3.05-7.21A419.35 419.35 0 0 1 896 464.18l-1.08-8A433.15 433.15 0 0 1 898.6 512c0 15.8 13.87 30.94 30.2 30.21S959 529 959 512c-0.15-91.58-28.46-183.18-81.91-257.75A454.93 454.93 0 0 0 663 91.26c-87-31.73-184.84-34.55-273.73-9.16-85.62 24.46-164.16 75.23-220.75 144.09a464.74 464.74 0 0 0-71.47 119.89c-17.42 42.54-27.27 87.79-30.79 133.57-7 91.5 15.56 185.25 63.18 263.67 46 75.75 115 138.26 195.92 174.8a461.32 461.32 0 0 0 137.65 38c46.63 5.46 94 2.8 140-6.49C690.69 932 772.75 886.06 834.53 821.5c62-64.79 104.8-148.57 118.5-237.38a478.48 478.48 0 0 0 6-72.1c0-15.79-13.91-30.93-30.2-30.2S898.62 495.09 898.6 512z" p-id="3059"></path><path d="M770.75 512.12c-0.73-16.25-13.19-30-30-30H390c-11 0-22-0.15-33.06-0.14l48.57-49.34 14.1-14.31c11-11.2 12-31.41 0-42.43s-30.67-11.95-42.43 0l-101 102.56-14.1 14.32c-11.29 11.47-11.66 31 0 42.43L363 634.27l14.14 13.88c11.21 11 31.4 12 42.43 0s12-30.69 0-42.43l-64.81-63.6h336.77c16.16 0 32.36 0.33 48.53 0h0.69c15.69 0 30.72-13.8 30-30z" p-id="3060"></path></svg>